<?xml version="1.0" encoding="UTF-8"?>
<svg id="Layer_2" data-name="Layer 2" xmlns="http://www.w3.org/2000/svg" viewBox="0 0 167.58 151.68">
  <g id="Layer_1-2" data-name="Layer 1">
    <path d="m103.17,151.68l1.04-18.33c31.58-5.56,47.1-25.21,49.1-60.35,1.74-30.55-9.07-50.78-28.31-51.88-22.3-1.27-28.79,26.56-35.67,55.9-7.73,33.58-16.22,69.57-48.6,67.73C15.06,143.3-2.13,116.89.21,75.64,2.59,33.79,23.46,6.47,60.6,0l-1.02,18.03c-28.22,5.75-43.17,26.05-45.01,58.44-1.74,30.55,8.54,49.22,25.65,50.19,21.39,1.22,27.85-26.31,34.75-55.95C83.01,37.13,91.5,1.14,124.18,3c27.5,1.56,45.54,29.26,43.19,70.5-2.55,44.91-23.74,72.52-64.21,78.19Z"/>
  </g>
</svg>