<?xml version="1.0" encoding="UTF-8"?>
<svg id="Layer_2" data-name="Layer 2" xmlns="http://www.w3.org/2000/svg" viewBox="0 0 164.67 151.93">
  <g id="Layer_1-2" data-name="Layer 1">
    <path d="m56.1,143.5l10.5-13.23c26.69,12.56,48.78,6.02,68.91-19.34,17.5-22.05,20.11-42.99,6.22-54.01-16.1-12.78-35.73,4.71-56.45,23.12-23.62,21.15-49.08,43.71-72.45,25.16C-5.69,90.49-4.61,61.51,19.02,31.75,43,1.54,73.17-7.94,104.53,6.89l-10.33,13.01c-24.26-10.64-46.26-3.3-64.82,20.07-17.5,22.05-19.67,41.53-7.33,51.33,15.43,12.25,34.89-5.01,55.79-23.64,23.84-20.97,49.3-43.54,72.89-24.81,19.84,15.75,18.73,46.14-4.9,75.9-25.73,32.41-56.29,41.93-89.73,24.74Z"/>
  </g>
</svg>